<?xml version="1.0" standalone="no"?>
<!DOCTYPE svg PUBLIC "-//W3C//DTD SVG 20010904//EN"
 "http://www.w3.org/TR/2001/REC-SVG-20010904/DTD/svg10.dtd">
<svg version="1.0" xmlns="http://www.w3.org/2000/svg"
 width="180.000000pt" height="180.000000pt" viewBox="0 0 180.000000 180.000000"
 preserveAspectRatio="xMidYMid meet">
<metadata>
Created by potrace 1.15, written by Peter Selinger 2001-2017
</metadata>
<g transform="translate(0.000000,180.000000) scale(0.100000,-0.100000)"
fill="#FFFFFF" stroke="none">
<path d="M843 1507 c-51 -23 -93 -44 -93 -47 0 -3 42 -24 93 -46 l92 -40 3
-77 c2 -47 -1 -77 -7 -77 -6 0 -39 16 -73 34 -35 19 -113 57 -173 84 l-111 49
-89 -39 c-50 -22 -93 -43 -98 -47 -4 -4 34 -25 85 -47 l93 -40 3 -82 c2 -46 7
-82 13 -82 5 0 44 18 85 41 l74 41 103 -45 102 -45 3 -86 3 -86 -56 25 c-407
179 -684 309 -678 318 3 6 1 7 -5 3 -9 -5 -12 -100 -12 -344 l0 -337 371 -167
371 -167 365 165 c201 90 369 164 374 164 5 0 9 142 9 339 l0 340 -77 41
c-105 55 -273 130 -294 130 -10 0 -51 18 -91 40 -76 41 -276 131 -287 129 -3
-1 -48 -20 -98 -42z m380 -259 l97 -41 0 -79 c0 -43 -2 -78 -5 -78 -2 0 -57
26 -122 58 -65 32 -142 70 -172 83 l-54 25 64 37 c35 19 71 36 79 36 8 1 59
-18 113 -41z"/>
</g>
</svg>
